<svg width="17" height="12" viewBox="0 0 17 12" fill="none" xmlns="http://www.w3.org/2000/svg">
<path id="Vector" d="M16.1581 3.71311C16.0798 3.61195 15.9631 3.55291 15.8406 3.55291H14.2834C13.8991 2.47884 13.3985 1.42648 12.8295 1.02924C10.861 -0.34308 5.63972 -0.34308 3.67125 1.02924C3.1018 1.42692 2.60323 2.48058 2.21691 3.55291H0.659743C0.536022 3.55291 0.419675 3.61195 0.342247 3.71311C0.264409 3.81383 0.233274 3.94711 0.258673 4.07518L0.489319 5.25952C0.528648 5.46139 0.696613 5.60553 0.890388 5.60553H1.35168C0.906366 6.14994 0.690468 6.83545 0.687601 7.5214C0.684733 8.36884 0.9883 9.13467 1.54341 9.67647C1.54955 9.68212 1.5557 9.68603 1.56143 9.69167V11.3488C1.56143 11.7078 1.83673 12 2.17594 12H3.61225C3.95146 12 4.22676 11.7078 4.22676 11.3488V10.6828H12.2731V11.3488C12.2731 11.7078 12.5484 12 12.8876 12H14.324C14.6623 12 14.9385 11.7078 14.9385 11.3488V9.72423C15.5276 9.15247 15.809 8.3658 15.8127 7.58044C15.8152 6.87105 15.5894 6.16036 15.1179 5.60466H15.6099C15.8045 5.60466 15.9725 5.46053 16.011 5.25822L16.242 4.07431C16.2658 3.94711 16.2359 3.81469 16.1581 3.71311ZM4.34598 2.11677C5.91502 1.0223 10.5849 1.0223 12.1531 2.11677C12.4579 2.32863 12.85 3.18519 13.2092 4.23408H3.29066C3.64912 3.18562 4.04118 2.3295 4.34598 2.11677ZM2.50819 7.68463C2.50819 6.97698 3.04977 6.40391 3.71713 6.40391C4.3853 6.40391 4.92607 6.97698 4.92607 7.68463C4.92607 8.39228 4.3853 8.96578 3.71713 8.96578C3.04977 8.96578 2.50819 8.39228 2.50819 7.68463ZM12.7987 8.96578C12.1314 8.96578 11.5898 8.39228 11.5898 7.68463C11.5898 6.97698 12.1314 6.40391 12.7987 6.40391C13.4669 6.40391 14.0077 6.97698 14.0077 7.68463C14.0077 8.39228 13.4661 8.96578 12.7987 8.96578Z" fill="white"/>
</svg>
