<svg width="21" height="20" viewBox="0 0 21 20" fill="none" xmlns="http://www.w3.org/2000/svg">
<g id="fork_right">
<path id="Vector" d="M12.1598 12.4032C11.8366 12.7285 11.8374 13.254 12.1617 13.5782C12.4866 13.9032 13.0135 13.9032 13.3385 13.5782L16.0834 10.8333L13.3385 8.08843C13.0135 7.76345 12.4866 7.76345 12.1617 8.08843C11.8374 8.41268 11.8366 8.93814 12.1598 9.26342L12.8917 10C11.6334 9.725 9.78341 10.0667 8.58342 11.1333V5.69167L9.31674 6.425C9.64318 6.75143 10.1727 6.75049 10.498 6.42291C10.8216 6.09696 10.8207 5.57063 10.4959 5.24583L7.75008 2.5L5.00517 5.24491C4.6802 5.56989 4.6802 6.09678 5.00517 6.42176C5.32943 6.74601 5.85489 6.74684 6.18017 6.42361L6.91675 5.69167V16.6667C6.91675 17.1269 7.28984 17.5 7.75008 17.5C8.21032 17.5 8.58342 17.1269 8.58342 16.6667V14.1667C9.19175 12.0167 11.1417 11.275 12.8917 11.6667L12.1598 12.4032Z" fill="#268DFF"/>
</g>
</svg>
