<svg width="26" height="26" viewBox="0 0 26 26" fill="none" xmlns="http://www.w3.org/2000/svg">
<g id="Icon" opacity="0.5">
<path id="Shape" fill-rule="evenodd" clip-rule="evenodd" d="M8.56824 12.4092C8.56824 15.1832 10.817 17.4319 13.591 17.4319C16.3649 17.4319 18.6137 15.1832 18.6137 12.4092C18.6104 9.63658 16.3636 7.38973 13.591 7.38647C10.817 7.38647 8.56824 9.63523 8.56824 12.4092ZM13.591 15.6592C11.796 15.6592 10.341 14.2041 10.341 12.4092C10.341 10.6143 11.796 9.1592 13.591 9.1592C15.3859 9.1592 16.841 10.6143 16.841 12.4092C16.841 14.2041 15.3859 15.6592 13.591 15.6592Z" fill="black"/>
<path id="Shape_2" fill-rule="evenodd" clip-rule="evenodd" d="M25.1137 11.5227H23.2937C22.8589 6.84549 19.1545 3.14115 14.4773 2.70636V0.886364C14.4773 0.396839 14.0805 0 13.5909 0C13.1014 0 12.7046 0.396839 12.7046 0.886364V2.70636C8.02734 3.14115 4.323 6.84549 3.88822 11.5227H1.47731C0.987781 11.5227 0.590942 11.9196 0.590942 12.4091C0.590942 12.8986 0.987781 13.2955 1.47731 13.2955H3.88822C4.32078 17.977 8.02894 21.6852 12.7105 22.1177C12.7105 22.1177 12.7105 22.1177 12.7105 22.165V24.5286C12.7105 25.0182 13.1073 25.415 13.5969 25.415C14.0864 25.415 14.4832 25.0182 14.4832 24.5286V22.165C14.4832 22.165 14.4832 22.165 14.4832 22.1177C19.1602 21.6798 22.862 17.973 23.2937 13.2955H25.1137C25.6032 13.2955 26 12.8986 26 12.4091C26 11.9196 25.6032 11.5227 25.1137 11.5227ZM13.5909 20.3864C9.18522 20.3864 5.61367 16.8148 5.61367 12.4091C5.61367 8.00336 9.18522 4.43182 13.5909 4.43182C17.9967 4.43182 21.5682 8.00336 21.5682 12.4091C21.5682 16.8148 17.9967 20.3864 13.5909 20.3864Z" fill="black"/>
</g>
</svg>
