<svg width="18" height="23" viewBox="0 0 18 23" fill="none" xmlns="http://www.w3.org/2000/svg">
<path id="Union" fill-rule="evenodd" clip-rule="evenodd" d="M3.76175 9.63258C3.06949 8.61426 2.70001 7.41704 2.70001 6.19232C2.70001 4.55001 3.36375 2.97497 4.54523 1.81369C5.72671 0.652403 7.32914 0 9.00001 0C10.246 0 11.4641 0.363173 12.5001 1.04359C13.5361 1.72401 14.3436 2.69112 14.8204 3.82262C15.2973 4.95412 15.422 6.19918 15.179 7.40038C14.9359 8.60157 14.3359 9.70493 13.4548 10.5709C12.5737 11.437 11.4512 12.0267 10.2291 12.2656C9.83072 12.3435 9.42761 12.383 9.02531 12.3846H11.7C13.3703 12.3865 14.9716 13.0395 16.1527 14.2003C17.3337 15.3612 17.9981 16.9352 18 18.5769V23H0V18.5769C0.00190563 16.9352 0.666266 15.3612 1.84733 14.2003C3.0284 13.0395 4.62972 12.3865 6.3 12.3846H8.97479C8.15993 12.3814 7.34932 12.2228 6.5891 11.9133C5.43793 11.4446 4.454 10.6509 3.76175 9.63258Z" fill="black" fill-opacity="0.2"/>
</svg>
