<svg width="108" height="27" viewBox="0 0 108 27" fill="none" xmlns="http://www.w3.org/2000/svg">
<path d="M6.23348 6.06713C7.04348 6.06713 7.87109 6.06713 8.6987 6.06713C10.3363 6.06713 11.6746 7.47583 11.6746 9.06061C11.6746 10.7158 10.3363 12.0365 8.6987 12.0365C7.81826 12.0365 7.13152 11.6315 6.60326 11.6315C6.23348 11.6315 5.91652 11.9484 5.91652 12.3182C5.91652 12.6704 6.23348 12.9521 6.60326 12.9521C7.13152 12.9521 7.81826 12.5471 8.6987 12.5471C10.3363 12.5471 11.6746 13.9558 11.6746 15.611C11.6746 17.1958 10.3363 18.5869 8.6987 18.5869C7.87109 18.5869 7.00826 18.5869 6.14543 18.5869C2.76457 18.5869 0 15.6463 0 12.3182C0 8.8317 2.79978 6.11996 6.23348 6.06713ZM18.5483 14.713C18.4602 14.6073 18.3194 14.713 18.3722 14.8539L19.4463 16.5091C19.147 17.6889 18.1785 18.5693 16.7346 18.5693C15.3259 18.5693 13.9524 17.3367 13.9524 15.8047V8.84931C13.9524 7.79278 14.4983 6.87713 15.3611 6.43691C16.5057 5.75018 18.0024 6.01431 18.8652 7.018L25.5565 13.7973C26.6307 14.8891 26.6307 16.6147 25.5565 17.6889C24.4648 18.7806 22.6863 18.7806 21.5946 17.6889L18.5483 14.713ZM31.3241 18.6221C29.8097 18.6221 28.5243 17.3367 28.5243 15.7695V8.86691C28.5243 7.31735 29.8097 6.08474 31.3769 6.08474H35.3213C38.0858 6.08474 40.3221 8.32105 40.3221 11.0856C40.3221 12.8113 39.5121 14.3256 38.1739 15.2589C38.0858 15.3117 38.1739 15.4878 38.2795 15.435C38.8606 15.1708 39.4065 14.801 39.8643 14.2728C40.6567 15.3997 40.5158 16.8789 39.5121 17.8826C38.5084 18.8863 36.6067 19.08 35.6558 17.7945L34.1415 15.9984C34.0534 17.4776 32.856 18.6221 31.3241 18.6221ZM34.4584 10.5221C34.3176 10.5221 34.2295 10.5573 34.1415 10.6102V11.8076C34.2295 11.8604 34.3176 11.8604 34.4584 11.8604C34.8282 11.8604 35.0923 11.5787 35.0923 11.2089C35.0923 10.8391 34.8282 10.5221 34.4584 10.5221Z" fill="#4A9CFB"/>
<path d="M45.5771 6.08474H51.1239C52.691 6.08474 53.9589 7.37018 53.9589 8.91974C53.9589 10.4165 52.7439 11.7019 51.1767 11.7019L51.1943 15.8047C51.1943 17.3719 49.9089 18.6573 48.3593 18.6573C46.845 18.6573 45.5771 17.3719 45.5771 15.8047V11.7019C44.01 11.7019 42.795 10.4165 42.795 8.91974C42.795 7.37018 44.01 6.08474 45.5771 6.08474ZM55.9924 8.90213C55.9924 7.33496 57.1722 6.06713 58.8274 6.06713H63.4233C65.642 6.06713 66.8746 8.60278 65.73 10.3813C65.1665 11.2969 64.3389 11.6139 63.2824 11.6491C63.1591 11.6491 63.1591 11.8252 63.2824 11.878C64.2509 12.0013 65.2017 11.79 65.9061 11.0504C66.3815 12.0893 66.2054 13.4452 65.4307 14.22C64.9024 14.801 64.198 15.0123 63.4585 15.1004C63.3352 15.1004 63.3352 15.3117 63.4585 15.3117C64.3741 15.3997 65.2898 15.2237 65.9413 14.4489C66.1174 14.7482 66.2054 15.0652 66.2054 15.8047C66.2054 16.8965 65.3778 18.5869 63.4233 18.5869H58.7922C57.225 18.5869 55.9924 17.3191 55.9924 15.8047V8.90213ZM68.3632 8.90213C68.3632 7.33496 69.543 6.06713 71.1982 6.06713H75.7941C78.0128 6.06713 79.2454 8.60278 78.1008 10.3813C77.5373 11.2969 76.7097 11.6139 75.6532 11.6491C75.5299 11.6491 75.5299 11.8252 75.6532 11.878C76.6217 12.0013 77.5725 11.79 78.2769 11.0504C78.7523 12.0893 78.5762 13.4452 77.8014 14.22C77.2732 14.801 76.5688 15.0123 75.8293 15.1004C75.706 15.1004 75.706 15.3117 75.8293 15.3117C76.7449 15.3997 77.6606 15.2237 78.3121 14.4489C78.4882 14.7482 78.5762 15.0652 78.5762 15.8047C78.5762 16.8965 77.7486 18.5869 75.7941 18.5869H71.163C69.5958 18.5869 68.3632 17.3191 68.3632 15.8047V8.90213ZM93.2362 15.8047C93.2362 18.5165 90.049 19.3617 88.4642 17.7593C87.4253 16.7556 86.4216 15.8047 85.4355 14.7658C85.3827 14.6602 85.2242 14.8187 85.277 14.9419L86.2807 16.4915C86.0166 17.7065 84.872 18.6221 83.5514 18.6221C82.0018 18.6221 80.734 17.3895 80.734 15.8047V8.86691C80.734 7.33496 82.0018 6.04952 83.5514 6.04952C84.3966 6.04952 85.1714 6.50735 85.6996 7.03561L88.5699 9.853C88.6227 9.95865 88.7812 9.853 88.7283 9.74735L87.6894 8.233C87.9536 7.03561 89.0981 6.04952 90.4012 6.04952C91.9683 6.04952 93.2362 7.33496 93.2362 8.86691V15.8047ZM95.4942 12.283C95.4942 8.77887 98.3996 6.08474 101.886 6.08474H104.334C105.883 6.08474 107.151 7.29974 107.151 8.77887C107.151 10.1171 106.341 11.1032 105.197 11.4554C105.091 11.4554 105.091 11.5082 105.091 11.5434C105.091 11.6315 105.091 11.6315 105.197 11.6843C106.288 12.0189 107.098 13.0754 107.098 14.3432V15.8223C107.098 17.231 105.725 18.5693 104.334 18.5693H101.833C98.3468 18.5693 95.4942 15.7871 95.4942 12.283ZM101.552 13.6037C101.552 13.7269 101.728 13.7797 101.798 13.6389C102.097 12.8113 102.643 12.1421 103.436 11.8076C103.577 11.7723 103.524 11.5963 103.401 11.5963H102.256C101.798 11.5963 101.552 11.8956 101.552 12.3358V13.6037Z" fill="#4A9CFB"/>
</svg>