<svg width="184" height="45" viewBox="0 0 184 45" fill="none" xmlns="http://www.w3.org/2000/svg">
<path d="M10.62 8.67C12 8.67 13.41 8.67 14.82 8.67C17.61 8.67 19.89 11.07 19.89 13.77C19.89 16.59 17.61 18.84 14.82 18.84C13.32 18.84 12.15 18.15 11.25 18.15C10.62 18.15 10.08 18.69 10.08 19.32C10.08 19.92 10.62 20.4 11.25 20.4C12.15 20.4 13.32 19.71 14.82 19.71C17.61 19.71 19.89 22.11 19.89 24.93C19.89 27.63 17.61 30 14.82 30C13.41 30 11.94 30 10.47 30C4.71 30 0 24.99 0 19.32C0 13.38 4.77 8.76 10.62 8.67ZM31.6008 23.4C31.4508 23.22 31.2108 23.4 31.3008 23.64L33.1308 26.46C32.6208 28.47 30.9708 29.97 28.5108 29.97C26.1108 29.97 23.7708 27.87 23.7708 25.26V13.41C23.7708 11.61 24.7008 10.05 26.1708 9.3C28.1208 8.13 30.6708 8.58 32.1408 10.29L43.5408 21.84C45.3708 23.7 45.3708 26.64 43.5408 28.47C41.6808 30.33 38.6508 30.33 36.7908 28.47L31.6008 23.4ZM53.367 30.06C50.787 30.06 48.597 27.87 48.597 25.2V13.44C48.597 10.8 50.787 8.7 53.457 8.7H60.177C64.887 8.7 68.697 12.51 68.697 17.22C68.697 20.16 67.317 22.74 65.037 24.33C64.887 24.42 65.037 24.72 65.217 24.63C66.207 24.18 67.137 23.55 67.917 22.65C69.267 24.57 69.027 27.09 67.317 28.8C65.607 30.51 62.367 30.84 60.747 28.65L58.167 25.59C58.017 28.11 55.977 30.06 53.367 30.06ZM58.707 16.26C58.467 16.26 58.317 16.32 58.167 16.41V18.45C58.317 18.54 58.467 18.54 58.707 18.54C59.337 18.54 59.787 18.06 59.787 17.43C59.787 16.8 59.337 16.26 58.707 16.26Z" fill="white"/>
<path d="M77.65 8.7H87.1C89.77 8.7 91.93 10.89 91.93 13.53C91.93 16.08 89.86 18.27 87.19 18.27L87.22 25.26C87.22 27.93 85.03 30.12 82.39 30.12C79.81 30.12 77.65 27.93 77.65 25.26V18.27C74.98 18.27 72.91 16.08 72.91 13.53C72.91 10.89 74.98 8.7 77.65 8.7ZM95.3945 13.5C95.3945 10.83 97.4045 8.67 100.225 8.67H108.055C111.835 8.67 113.935 12.99 111.985 16.02C111.025 17.58 109.615 18.12 107.815 18.18C107.605 18.18 107.605 18.48 107.815 18.57C109.465 18.78 111.085 18.42 112.285 17.16C113.095 18.93 112.795 21.24 111.475 22.56C110.575 23.55 109.375 23.91 108.115 24.06C107.905 24.06 107.905 24.42 108.115 24.42C109.675 24.57 111.235 24.27 112.345 22.95C112.645 23.46 112.795 24 112.795 25.26C112.795 27.12 111.385 30 108.055 30H100.165C97.4945 30 95.3945 27.84 95.3945 25.26V13.5ZM116.471 13.5C116.471 10.83 118.481 8.67 121.301 8.67H129.131C132.911 8.67 135.011 12.99 133.061 16.02C132.101 17.58 130.691 18.12 128.891 18.18C128.681 18.18 128.681 18.48 128.891 18.57C130.541 18.78 132.161 18.42 133.361 17.16C134.171 18.93 133.871 21.24 132.551 22.56C131.651 23.55 130.451 23.91 129.191 24.06C128.981 24.06 128.981 24.42 129.191 24.42C130.751 24.57 132.311 24.27 133.421 22.95C133.721 23.46 133.871 24 133.871 25.26C133.871 27.12 132.461 30 129.131 30H121.241C118.571 30 116.471 27.84 116.471 25.26V13.5ZM158.847 25.26C158.847 29.88 153.417 31.32 150.717 28.59C148.947 26.88 147.237 25.26 145.557 23.49C145.467 23.31 145.197 23.58 145.287 23.79L146.997 26.43C146.547 28.5 144.597 30.06 142.347 30.06C139.707 30.06 137.547 27.96 137.547 25.26V13.44C137.547 10.83 139.707 8.64 142.347 8.64C143.787 8.64 145.107 9.42 146.007 10.32L150.897 15.12C150.987 15.3 151.257 15.12 151.167 14.94L149.397 12.36C149.847 10.32 151.797 8.64 154.017 8.64C156.687 8.64 158.847 10.83 158.847 13.44V25.26ZM162.694 19.26C162.694 13.29 167.644 8.7 173.584 8.7H177.754C180.394 8.7 182.554 10.77 182.554 13.29C182.554 15.57 181.174 17.25 179.224 17.85C179.044 17.85 179.044 17.94 179.044 18C179.044 18.15 179.044 18.15 179.224 18.24C181.084 18.81 182.464 20.61 182.464 22.77V25.29C182.464 27.69 180.124 29.97 177.754 29.97H173.494C167.554 29.97 162.694 25.23 162.694 19.26ZM173.014 21.51C173.014 21.72 173.314 21.81 173.434 21.57C173.944 20.16 174.874 19.02 176.224 18.45C176.464 18.39 176.374 18.09 176.164 18.09H174.214C173.434 18.09 173.014 18.6 173.014 19.35V21.51Z" fill="white"/>
</svg>