<svg width="69" height="84" viewBox="0 0 69 84" fill="none" xmlns="http://www.w3.org/2000/svg">
<g id="Icon">
<path id="Shape" d="M67.8969 34.1984C67.8969 47.2968 59.4644 59.5244 50.9347 68.528C46.68 73.019 42.4237 76.6843 39.2305 79.2271C37.6342 80.4981 36.3047 81.4879 35.3751 82.1592C34.9104 82.4949 34.5457 82.7509 34.2978 82.9226C34.2623 82.9472 34.2291 82.9701 34.1984 82.9912C34.1677 82.9701 34.1346 82.9472 34.099 82.9226C33.8511 82.7509 33.4865 82.4949 33.0217 82.1592C32.0922 81.4879 30.7626 80.4981 29.1664 79.2271C25.9732 76.6843 21.7168 73.019 17.4622 68.528C8.93248 59.5244 0.5 47.2968 0.5 34.1984C0.5 15.5873 15.5873 0.5 34.1984 0.5C52.8096 0.5 67.8969 15.5873 67.8969 34.1984Z" fill="url(#paint0_linear_58_2622)" stroke="#2592FD"/>
<path id="Oval" fill-rule="evenodd" clip-rule="evenodd" d="M34.1983 45.5979C40.4941 45.5979 45.5978 40.4942 45.5978 34.1985C45.5978 27.9027 40.4941 22.799 34.1983 22.799C27.9025 22.799 22.7988 27.9027 22.7988 34.1985C22.7988 40.4942 27.9025 45.5979 34.1983 45.5979Z" fill="white" stroke="white" stroke-width="2" stroke-linecap="round" stroke-linejoin="round"/>
</g>
<defs>
<linearGradient id="paint0_linear_58_2622" x1="0" y1="35.827" x2="68.3969" y2="35.827" gradientUnits="userSpaceOnUse">
<stop stop-color="#54CEE9"/>
<stop offset="1" stop-color="#1F8AFF"/>
</linearGradient>
</defs>
</svg>
