<svg width="19" height="16" viewBox="0 0 19 16" fill="none" xmlns="http://www.w3.org/2000/svg">
<g id="Group">
<g id="Group_2">
<path id="Vector" d="M18.0626 5.29954C17.9737 5.18009 17.8411 5.11037 17.7021 5.11037H15.934C15.4977 3.84206 14.9293 2.59938 14.2832 2.1303C12.0481 0.50979 6.11967 0.50979 3.8846 2.1303C3.23803 2.59989 2.67194 3.84411 2.23329 5.11037H0.465236C0.324759 5.11037 0.192654 5.18009 0.10474 5.29954C0.0163603 5.41848 -0.0189915 5.57586 0.00984812 5.7271L0.271731 7.12562C0.316386 7.36401 0.5071 7.53421 0.727119 7.53421H1.25088C0.74526 8.17708 0.500123 8.98657 0.496866 9.79656C0.49361 10.7973 0.838291 11.7016 1.46858 12.3414C1.47555 12.3481 1.48253 12.3527 1.48904 12.3593V14.3161C1.48904 14.7401 1.80163 15.0851 2.18678 15.0851H3.81762C4.20276 15.0851 4.51535 14.7401 4.51535 14.3161V13.5297H13.6515V14.3161C13.6515 14.7401 13.9641 15.0851 14.3492 15.0851H15.98C16.3643 15.0851 16.6778 14.7401 16.6778 14.3161V12.3978C17.3467 11.7226 17.6662 10.7937 17.6704 9.86629C17.6732 9.0286 17.4169 8.18939 16.8815 7.53319H17.4402C17.6611 7.53319 17.8518 7.36298 17.8956 7.12409L18.1579 5.72607C18.1849 5.57586 18.1509 5.4195 18.0626 5.29954ZM4.65071 3.4145C6.43226 2.1221 11.7346 2.1221 13.5152 3.4145C13.8613 3.66468 14.3064 4.67615 14.7144 5.91473H3.45247C3.85948 4.67666 4.30463 3.6657 4.65071 3.4145ZM2.56402 9.98932C2.56402 9.15369 3.17896 8.47699 3.9367 8.47699C4.69536 8.47699 5.30937 9.15369 5.30937 9.98932C5.30937 10.825 4.69536 11.5022 3.9367 11.5022C3.17896 11.5022 2.56402 10.825 2.56402 9.98932ZM14.2483 11.5022C13.4905 11.5022 12.8756 10.825 12.8756 9.98932C12.8756 9.15369 13.4905 8.47699 14.2483 8.47699C15.0069 8.47699 15.6209 9.15369 15.6209 9.98932C15.6209 10.825 15.006 11.5022 14.2483 11.5022Z" fill="black" fill-opacity="0.7"/>
</g>
</g>
</svg>
