<svg width="18" height="19" viewBox="0 0 18 19" fill="none" xmlns="http://www.w3.org/2000/svg">
<g id="Shape">
<path d="M6.75483 0.918664C7.233 0.495347 7.86226 0.241766 8.55418 0.250204C9.19988 0.258554 9.79229 0.49991 10.2503 0.89314C10.6694 1.25301 10.9759 1.74007 11.1077 2.29215C11.1553 2.4915 11.1801 2.69933 11.1792 2.9127C11.1792 4.0877 10.4229 5.08145 9.37293 5.4377C9.15418 5.5127 8.92918 5.34395 8.92918 5.1127C8.92918 5.03145 8.96043 4.9502 9.01668 4.8877C9.32918 4.53145 9.51668 4.06895 9.52293 3.55645C9.526 3.00132 9.29879 2.49586 8.93289 2.125H7.47728C6.43048 2.125 5.40065 2.47238 4.53616 3.11873C3.06558 4.2266 2.25988 6.07851 2.44215 7.9864L2.59731 9.3879C2.62824 9.66723 2.46892 9.93285 2.20794 10.0371C1.68829 10.2447 1.32294 10.7523 1.32294 11.3438C1.32294 12.0442 1.83563 12.626 2.50615 12.7325C2.77835 12.7757 2.99011 12.9921 3.02739 13.2652C3.21306 14.6252 3.93829 15.5698 4.94964 16.1916C5.97897 16.8244 7.3151 17.125 8.66669 17.125C10.0183 17.125 11.3544 16.8244 12.3837 16.1916C13.3951 15.5698 14.1203 14.6252 14.306 13.2652C14.3433 12.9921 14.555 12.7757 14.8272 12.7325C15.4977 12.626 16.0104 12.0442 16.0104 11.3438C16.0104 10.7523 15.6451 10.2447 15.1254 10.0371C14.8645 9.93285 14.7051 9.66723 14.7361 9.3879L14.8912 7.9864C15.0735 6.07854 14.2678 4.22667 12.7973 3.11878C12.4791 2.88089 12.1386 2.6835 11.783 2.52902C11.7197 1.97652 11.5172 1.46483 11.2117 1.02979C12.0488 1.22289 12.8442 1.5929 13.5467 2.11837L13.5484 2.11959C15.3797 3.49869 16.3593 5.78239 16.1351 8.11055L16.1341 8.1194L16.0256 9.09959C16.7672 9.57027 17.2604 10.3989 17.2604 11.3438C17.2604 12.5073 16.5127 13.4954 15.4715 13.855C15.1432 15.406 14.2276 16.5254 13.0384 17.2565C11.7622 18.041 10.1828 18.375 8.66669 18.375C7.15057 18.375 5.57115 18.041 4.29499 17.2565C3.10579 16.5254 2.19014 15.406 1.86185 13.855C0.820647 13.4954 0.072937 12.5073 0.072937 11.3438C0.072937 10.3989 0.566137 9.57027 1.30775 9.09959L1.19924 8.1194L1.19832 8.11055C0.974092 5.78239 1.95366 3.49869 3.78501 2.11959L3.78663 2.11837C4.66433 1.46187 5.68704 1.04805 6.75483 0.918664Z" fill="#212121"/>
<path d="M6.78233 13.5191C7.32373 13.8076 7.97093 13.977 8.66168 13.977C9.35243 13.977 9.99963 13.8076 10.5535 13.5191C10.7402 13.425 10.9331 13.6383 10.8211 13.8139C10.3606 14.5228 9.57024 14.9933 8.6679 14.9933C7.76557 14.9933 6.96902 14.5228 6.51474 13.8139C6.39651 13.632 6.59564 13.4187 6.78233 13.5191Z" fill="#212121"/>
<path d="M8.66807 13.1562C8.96967 13.1562 9.23919 13.003 9.39319 12.773C9.53437 12.5623 9.38678 12.2812 9.1301 12.2812H8.20604C7.94936 12.2812 7.79535 12.5687 7.94294 12.773C8.09695 13.0094 8.36647 13.1562 8.66807 13.1562Z" fill="#212121"/>
<path d="M5.36045 9.625C4.3542 9.625 3.5042 10.3288 3.27295 11.2799C3.2042 11.5525 3.41045 11.8125 3.68545 11.8125H4.35412C4.32291 11.7001 4.30418 11.5751 4.30418 11.4502C4.30418 10.694 4.91668 10.0752 5.67918 10.0752C6.44168 10.0752 7.05418 10.694 7.06043 11.4502C7.06043 11.5751 7.0417 11.6938 7.01049 11.8125H7.12295C7.34169 11.8125 7.5167 11.6096 7.47295 11.3877C7.2792 10.3859 6.4042 9.625 5.36045 9.625Z" fill="#212121"/>
<path d="M11.6104 9.625C12.6167 9.625 13.4667 10.3288 13.6979 11.2799C13.7667 11.5525 13.5604 11.8125 13.2854 11.8125H12.6167C12.648 11.7001 12.6667 11.5751 12.6667 11.4502C12.6667 10.694 12.0542 10.0752 11.2917 10.0752C10.5292 10.0752 9.91043 10.694 9.91043 11.4502C9.91043 11.5751 9.92916 11.6938 9.96038 11.8125H9.84795C9.62919 11.8125 9.45419 11.6096 9.49794 11.3877C9.69169 10.3859 10.5604 9.625 11.6104 9.625Z" fill="#212121"/>
<path d="M6.46668 11.4502C6.46668 11.0127 6.11668 10.6627 5.67918 10.6627C5.50889 10.6627 5.35185 10.7157 5.22355 10.8063C5.23917 10.8385 5.24794 10.8746 5.24794 10.9127C5.24794 11.0473 5.13881 11.1565 5.00419 11.1565C4.98555 11.1565 4.9674 11.1544 4.94997 11.1504C4.91237 11.2427 4.89168 11.3439 4.89168 11.4502C4.89168 11.5815 4.92293 11.7065 4.97918 11.8127H6.37293C6.42918 11.7065 6.46668 11.5815 6.46668 11.4502Z" fill="#212121"/>
<path d="M11.0044 10.716C11.0933 10.6816 11.1901 10.6627 11.2917 10.6627C11.7292 10.6627 12.0792 11.0127 12.0792 11.4502C12.0792 11.5815 12.0479 11.7065 11.9917 11.8127H10.5979C10.5354 11.7065 10.5042 11.5815 10.5042 11.4502C10.5042 11.2868 10.553 11.1356 10.637 11.0103C10.6746 11.0963 10.7605 11.1565 10.8604 11.1565C10.9951 11.1565 11.1042 11.0473 11.1042 10.9127C11.1042 10.832 11.0649 10.7604 11.0044 10.716Z" fill="#212121"/>
<path d="M4.69649 8.71959C5.0223 8.60363 5.48901 8.51559 6.1061 8.57381C6.27793 8.59002 6.43036 8.46386 6.44657 8.29204C6.46278 8.12021 6.33663 7.96778 6.1648 7.95157C5.45689 7.88478 4.89861 7.98425 4.48691 8.13078C4.32432 8.18865 4.23942 8.36738 4.2973 8.52998C4.35517 8.69257 4.5339 8.77747 4.69649 8.71959Z" fill="#212121"/>
<path d="M12.5527 8.13078C12.141 7.98425 11.5827 7.88478 10.8748 7.95157C10.703 7.96778 10.5769 8.12021 10.5931 8.29204C10.6093 8.46386 10.7617 8.59002 10.9335 8.57381C11.5506 8.51559 12.0173 8.60363 12.3431 8.71959C12.5057 8.77747 12.6845 8.69257 12.7423 8.52998C12.8002 8.36738 12.7153 8.18865 12.5527 8.13078Z" fill="#212121"/>
</g>
</svg>
