<svg width="9" height="16" viewBox="0 0 9 16" fill="none" xmlns="http://www.w3.org/2000/svg">
<path id="Union" fill-rule="evenodd" clip-rule="evenodd" d="M4.06741 4.21914C4.04409 4.22021 4.02077 4.22067 3.99774 4.22067C3.14488 4.22067 2.44778 3.52604 2.41082 2.63922C2.39249 2.19825 2.54033 1.77619 2.82721 1.45069C3.11408 1.12534 3.50568 0.935436 3.92969 0.91637C4.81657 0.876864 5.54843 1.58553 5.58627 2.4963C5.6046 2.93726 5.45677 3.35947 5.16989 3.68482C4.88301 4.01017 4.49142 4.20008 4.06741 4.21914ZM6.55954 7.08476L8.21729 8.07973C8.4257 8.2048 8.50182 8.48546 8.38684 8.70526L8.28109 8.90782C8.20321 9.05685 8.05259 9.14943 7.88803 9.14943C7.81719 9.14943 7.74679 9.13159 7.68431 9.09773L5.90643 8.13723L5.95821 9.37793C5.96103 9.38432 5.96398 9.39064 5.96693 9.39696C5.97335 9.4107 5.97978 9.42447 5.9849 9.43909L7.59749 14.0625C7.66437 14.2544 7.65395 14.46 7.56815 14.6412C7.48221 14.8224 7.33188 14.9562 7.14473 15.0179L7.05028 15.0492C6.97782 15.0732 6.90244 15.0852 6.82617 15.0852C6.50512 15.0852 6.21678 14.8769 6.10869 14.5669L4.57735 10.1761L4.51209 10.179C4.50999 10.1844 4.50807 10.1898 4.50615 10.1951C4.50242 10.2056 4.49869 10.216 4.49375 10.226L3.55818 12.1C3.45096 12.3149 3.2207 12.5963 3.03399 12.7409L1.15991 14.1923C1.07484 14.258 0.9776 14.293 0.878748 14.293C0.705976 14.293 0.550658 14.1848 0.473218 14.0108L0.279033 13.5744C0.160821 13.3084 0.247207 12.9661 0.475858 12.7949L1.89529 11.7321C2.04576 11.6194 2.23731 11.3758 2.31357 11.1999L2.91901 9.80334C2.91887 9.80173 2.91859 9.80019 2.9183 9.79866C2.91796 9.79684 2.91762 9.79502 2.91754 9.79312L2.78114 6.52223L2.51583 6.7347C2.43252 6.80136 2.37679 6.95953 2.39879 7.06646L2.8181 9.10352C2.84289 9.22402 2.8184 9.34849 2.75078 9.44489C2.68332 9.54129 2.57684 9.60352 2.45892 9.61588L2.23878 9.63876C2.22396 9.64028 2.209 9.64104 2.19419 9.64104C1.97492 9.64104 1.77223 9.47478 1.7231 9.25453L1.13336 6.61573C1.08408 6.39562 1.18044 6.11496 1.35248 5.97692L2.84186 4.78229C2.85251 4.7738 2.8645 4.7663 2.87644 4.75883C2.8793 4.75705 2.88215 4.75526 2.88498 4.75347C2.95817 4.69077 3.04749 4.65295 3.14355 4.64868L5.33547 4.55029C5.50222 4.55029 5.6461 4.6473 5.72076 4.79007C5.74452 4.82577 5.76388 4.86634 5.77664 4.91179L6.29011 6.72875C6.32472 6.85124 6.4532 7.021 6.55954 7.08476Z" fill="black"/>
</svg>
