<svg width="10" height="16" viewBox="0 0 10 16" fill="none" xmlns="http://www.w3.org/2000/svg">
<path id="Union" fill-rule="evenodd" clip-rule="evenodd" d="M4.73409 4.21914C4.71077 4.22021 4.68745 4.22067 4.66443 4.22067C3.81157 4.22067 3.11447 3.52604 3.07751 2.63922C3.05918 2.19825 3.20702 1.77619 3.49389 1.45069C3.78077 1.12534 4.17237 0.935436 4.59637 0.91637C5.48326 0.876864 6.21512 1.58553 6.25296 2.4963C6.27129 2.93726 6.12345 3.35947 5.83658 3.68482C5.5497 4.01017 5.1581 4.20008 4.73409 4.21914ZM7.22622 7.08476L8.88398 8.07973C9.09239 8.2048 9.16851 8.48546 9.05352 8.70526L8.94778 8.90782C8.8699 9.05685 8.71927 9.14943 8.55472 9.14943C8.48388 9.14943 8.41348 9.13159 8.351 9.09773L6.57312 8.13723L6.62489 9.37793C6.62771 9.38432 6.63066 9.39064 6.63362 9.39696C6.64004 9.4107 6.64646 9.42447 6.65159 9.43909L8.26417 14.0625C8.33105 14.2544 8.32064 14.46 8.23484 14.6412C8.14889 14.8224 7.99856 14.9562 7.81142 15.0179L7.71696 15.0492C7.64451 15.0732 7.56913 15.0852 7.49286 15.0852C7.17181 15.0852 6.88347 14.8769 6.77537 14.5669L5.24404 10.1761L5.17877 10.179C5.17668 10.1844 5.17476 10.1898 5.17284 10.1951C5.1691 10.2056 5.16538 10.216 5.16044 10.226L4.22486 12.1C4.11765 12.3149 3.88739 12.5963 3.70068 12.7409L1.82659 14.1923C1.74153 14.258 1.64429 14.293 1.54543 14.293C1.37266 14.293 1.21734 14.1848 1.13991 14.0108L0.94572 13.5744C0.827508 13.3084 0.913894 12.9661 1.14255 12.7949L2.56197 11.7321C2.71245 11.6194 2.904 11.3758 2.98026 11.1999L3.5857 9.80334C3.58556 9.80173 3.58527 9.80019 3.58499 9.79866C3.58465 9.79684 3.58431 9.79502 3.58423 9.79312L3.44783 6.52223L3.18251 6.7347C3.09921 6.80136 3.04347 6.95953 3.06547 7.06646L3.48479 9.10352C3.50958 9.22402 3.48508 9.34849 3.41747 9.44489C3.35 9.54129 3.24353 9.60352 3.12561 9.61588L2.90546 9.63876C2.89065 9.64028 2.87569 9.64104 2.86088 9.64104C2.64161 9.64104 2.43892 9.47478 2.38979 9.25453L1.80005 6.61573C1.75077 6.39562 1.84713 6.11496 2.01916 5.97692L3.50855 4.78229C3.5192 4.7738 3.53119 4.7663 3.54313 4.75883C3.54599 4.75705 3.54884 4.75526 3.55167 4.75347C3.62486 4.69077 3.71417 4.65295 3.81024 4.64868L6.00215 4.55029C6.16891 4.55029 6.31279 4.6473 6.38744 4.79007C6.4112 4.82577 6.43056 4.86634 6.44332 4.91179L6.9568 6.72875C6.99141 6.85124 7.11989 7.021 7.22622 7.08476Z" fill="black"/>
</svg>
