<svg width="36" height="36" viewBox="0 0 36 36" fill="none" xmlns="http://www.w3.org/2000/svg">
<circle cx="18" cy="18" r="17" fill="white" stroke="#E5E5E5" stroke-width="2"/>
<mask id="mask0_313_4062" style="mask-type:alpha" maskUnits="userSpaceOnUse" x="2" y="2" width="32" height="32">
<rect x="2" y="2" width="32" height="32" rx="16" fill="#EBEBEB"/>
</mask>
<g mask="url(#mask0_313_4062)">
<path fill-rule="evenodd" clip-rule="evenodd" d="M12.8831 20.9433C12.1685 19.8921 11.7871 18.6563 11.7871 17.3921C11.7871 15.6968 12.4723 14.0709 13.6919 12.8722C14.9115 11.6734 16.5656 11 18.2903 11C19.5766 11 20.8339 11.3749 21.9033 12.0773C22.9728 12.7796 23.8063 13.7779 24.2985 14.9459C24.7908 16.1139 24.9195 17.3992 24.6686 18.6391C24.4177 19.879 23.7983 21.018 22.8888 21.9119C21.9793 22.8059 20.8206 23.4147 19.5591 23.6613C18.2976 23.908 16.99 23.7814 15.8017 23.2976C14.6133 22.8138 13.5977 21.9945 12.8831 20.9433ZM27.5806 34.742H9V30.1762C9.00197 28.4815 9.68776 26.8568 10.9069 25.6585C12.1261 24.4602 13.7791 23.7861 15.5032 23.7841H21.0774C22.8016 23.7861 24.4546 24.4602 25.6737 25.6585C26.8929 26.8568 27.5787 28.4815 27.5806 30.1762V34.742Z" fill="black" fill-opacity="0.2"/>
</g>
</svg>